<svg width="36" height="36" viewBox="0 0 36 36" fill="none" xmlns="http://www.w3.org/2000/svg">
<path d="M32.1608 0H4.00582C1.88542 0 0.166504 1.71892 0.166504 3.83931V31.9943C0.166504 34.1147 1.88542 35.8336 4.00582 35.8336H14.9839V23.651H9.94476V17.9168H14.9839V13.5464C14.9839 8.57527 17.9433 5.82936 22.4761 5.82936C24.6469 5.82936 26.9169 6.21649 26.9169 6.21649V11.0956H24.4158C21.9514 11.0956 21.1827 12.6249 21.1827 14.1935V17.9168H26.6842L25.8043 23.651H21.1827V35.8336H32.1608C34.2812 35.8336 36.0001 34.1147 36.0001 31.9943V3.83931C36.0001 1.71892 34.2812 0 32.1608 0V0Z" fill="white"/>
</svg>
