<svg width="37" height="36" viewBox="0 0 37 36" fill="none" xmlns="http://www.w3.org/2000/svg">
<path fill-rule="evenodd" clip-rule="evenodd" d="M32.7721 0H4.61715C2.49675 0 0.777832 1.71892 0.777832 3.83931V31.9943C0.777832 34.1147 2.49675 35.8336 4.61715 35.8336H32.7721C34.8925 35.8336 36.6114 34.1147 36.6114 31.9943V3.83931C36.6114 1.71892 34.8925 0 32.7721 0ZM26.2376 7.93853C27.3502 8.37756 28.2309 9.2583 28.6699 10.3709L28.6731 10.3717C29.2462 11.8177 29.2145 14.9661 29.194 17.0072V17.0073V17.0073V17.0074V17.0074V17.0075C29.1905 17.3451 29.1875 17.6524 29.1875 17.9168C29.1875 18.1811 29.1905 18.4885 29.1939 18.8263V18.8264C29.2145 20.8685 29.2462 24.0205 28.6731 25.4618C28.2341 26.5744 27.3534 27.4551 26.2408 27.8942C24.7962 28.4676 21.6532 28.4358 19.6114 28.415C19.2723 28.4116 18.9636 28.4085 18.6981 28.4085C18.4376 28.4085 18.1354 28.4114 17.8036 28.4146C15.7613 28.4342 12.5997 28.4646 11.1547 27.8942C10.0421 27.4551 9.16134 26.5744 8.72231 25.4618C8.14925 24.0106 8.17939 20.844 8.19882 18.8034C8.20195 18.4743 8.2048 18.1745 8.2048 17.916C8.2048 17.6566 8.20193 17.3556 8.19878 17.0252C8.1793 14.9837 8.14908 11.8166 8.71911 10.3709C9.15814 9.2583 10.0389 8.37756 11.1515 7.93853C12.5961 7.36506 15.7404 7.39695 17.782 7.41766C18.121 7.4211 18.4296 7.42423 18.6949 7.42423C18.9553 7.42423 19.2574 7.42132 19.5891 7.41813C21.6309 7.3985 24.7926 7.3681 26.2376 7.93853ZM14.4298 17.9178C14.4292 15.5617 16.3386 13.6512 18.6946 13.6503C21.0508 13.6512 22.9609 15.5605 22.9627 17.9167C22.9627 20.2728 21.0529 22.1829 18.6968 22.1832C16.3407 22.1835 14.4304 20.2739 14.4298 17.9178ZM18.6949 24.4756C15.0726 24.4756 12.1361 21.5391 12.1361 17.9167C12.1361 14.2944 15.0726 11.3579 18.6949 11.3579C22.3172 11.3579 25.2537 14.2944 25.2537 17.9167C25.2559 19.6569 24.5655 21.3264 23.335 22.5569C22.1046 23.7874 20.4351 24.4777 18.6949 24.4756ZM24.109 11.6692C24.3462 12.2412 24.9047 12.614 25.5239 12.6137L25.5271 12.6169C25.9333 12.6167 26.3226 12.4548 26.6091 12.1669C26.8957 11.879 27.0558 11.4889 27.0541 11.0828C27.0541 10.4635 26.681 9.90521 26.1088 9.6683C25.5366 9.43139 24.8781 9.56252 24.4403 10.0005C24.0025 10.4385 23.8718 11.0971 24.109 11.6692ZM29.3352 28.5548C30.8318 27.0623 31.2997 25.2458 31.4029 23.1958C31.5221 21.0809 31.5221 14.7525 31.4029 12.6473C31.3053 10.5972 30.8286 8.77995 29.3352 7.28421C27.8419 5.78848 26.0262 5.31977 23.9762 5.21658C21.8638 5.0974 15.5305 5.0974 13.4181 5.21658C11.3761 5.31417 9.56118 5.78608 8.05905 7.27861C6.55692 8.77115 6.0946 10.5876 5.99142 12.6377C5.87224 14.7485 5.87224 21.0825 5.99142 23.1958C6.089 25.2418 6.56012 27.0591 8.05905 28.5548C9.55798 30.0505 11.3681 30.5193 13.4181 30.6224C15.5305 30.7416 21.8638 30.7416 23.9762 30.6224C26.0238 30.5249 27.8387 30.0473 29.3352 28.5548Z" fill="white"/>
</svg>
