<svg width="126" height="29" viewBox="0 0 126 29" fill="none" xmlns="http://www.w3.org/2000/svg">
<rect width="126" height="29" rx="9" fill="#FFF9F0"/>
<rect width="126" height="29" rx="9" fill="#FFF9F0"/>
<rect width="126" height="29" rx="9" fill="#FFF9F0"/>
<rect width="126" height="29" rx="9" fill="#FFF9F0"/>
<path d="M30.1221 10.0059C30.9834 10.0059 31.6943 10.1107 32.2549 10.3203C32.82 10.5299 33.2393 10.849 33.5127 11.2773C33.7907 11.7057 33.9297 12.2503 33.9297 12.9111C33.9297 13.4033 33.8385 13.8226 33.6562 14.1689C33.474 14.5153 33.2347 14.8024 32.9385 15.0303C32.6423 15.2581 32.3255 15.4404 31.9883 15.5771L34.8252 20H32.9727L30.5596 15.9941H28.9531V20H27.3125V10.0059H30.1221ZM30.0127 11.373H28.9531V14.6406H30.0879C30.849 14.6406 31.4004 14.4993 31.7422 14.2168C32.0885 13.9342 32.2617 13.5173 32.2617 12.9658C32.2617 12.387 32.0771 11.9769 31.708 11.7354C31.3434 11.4938 30.7783 11.373 30.0127 11.373ZM39.1045 12.2891C39.779 12.2891 40.3577 12.4281 40.8408 12.7061C41.3239 12.984 41.6953 13.3783 41.9551 13.8887C42.2148 14.3991 42.3447 15.0098 42.3447 15.7207V16.582H37.293C37.3112 17.3158 37.5072 17.8809 37.8809 18.2773C38.2591 18.6738 38.7878 18.8721 39.4668 18.8721C39.9499 18.8721 40.3828 18.8265 40.7656 18.7354C41.153 18.6396 41.5518 18.5007 41.9619 18.3184V19.624C41.5837 19.8018 41.1986 19.9316 40.8066 20.0137C40.4147 20.0957 39.9453 20.1367 39.3984 20.1367C38.6556 20.1367 38.0016 19.9932 37.4365 19.7061C36.876 19.4144 36.4362 18.9814 36.1172 18.4072C35.8027 17.833 35.6455 17.1198 35.6455 16.2676C35.6455 15.4199 35.7891 14.6999 36.0762 14.1074C36.3633 13.515 36.7666 13.0638 37.2861 12.7539C37.8057 12.444 38.4118 12.2891 39.1045 12.2891ZM39.1045 13.499C38.5986 13.499 38.1885 13.6631 37.874 13.9912C37.5641 14.3193 37.3818 14.8001 37.3271 15.4336H40.7725C40.7679 15.0553 40.7041 14.7204 40.5811 14.4287C40.4626 14.137 40.2803 13.9092 40.0342 13.7451C39.7926 13.5811 39.4827 13.499 39.1045 13.499ZM47.123 12.2891C48.0801 12.2891 48.8024 12.501 49.29 12.9248C49.7822 13.3486 50.0283 14.0094 50.0283 14.9072V20H48.8867L48.5791 18.9268H48.5244C48.3102 19.2002 48.0892 19.4258 47.8613 19.6035C47.6335 19.7812 47.3691 19.9134 47.0684 20C46.7721 20.0911 46.4098 20.1367 45.9814 20.1367C45.5303 20.1367 45.127 20.0547 44.7715 19.8906C44.416 19.722 44.1357 19.4668 43.9307 19.125C43.7256 18.7832 43.623 18.3503 43.623 17.8262C43.623 17.0469 43.9124 16.4613 44.4912 16.0693C45.0745 15.6774 45.9541 15.4609 47.1299 15.4199L48.4424 15.3721V14.9756C48.4424 14.4515 48.3193 14.0778 48.0732 13.8545C47.8317 13.6312 47.4899 13.5195 47.0479 13.5195C46.6696 13.5195 46.3027 13.5742 45.9473 13.6836C45.5918 13.793 45.2454 13.9274 44.9082 14.0869L44.3887 12.9521C44.7578 12.7562 45.1771 12.5967 45.6465 12.4736C46.1204 12.3506 46.6126 12.2891 47.123 12.2891ZM48.4355 16.3838L47.458 16.418C46.6559 16.4453 46.0931 16.582 45.7695 16.8281C45.446 17.0742 45.2842 17.4115 45.2842 17.8398C45.2842 18.2135 45.3958 18.487 45.6191 18.6602C45.8424 18.8288 46.1364 18.9131 46.501 18.9131C47.057 18.9131 47.5173 18.7559 47.8818 18.4414C48.251 18.1224 48.4355 17.6553 48.4355 17.04V16.3838ZM54.8203 20.1367C53.918 20.1367 53.1934 19.8086 52.6465 19.1523C52.1042 18.4915 51.833 17.5186 51.833 16.2334C51.833 14.9346 52.1087 13.9525 52.6602 13.2871C53.2161 12.6217 53.9476 12.2891 54.8545 12.2891C55.2373 12.2891 55.5723 12.3415 55.8594 12.4463C56.1465 12.5465 56.3926 12.6833 56.5977 12.8564C56.8073 13.0296 56.985 13.2233 57.1309 13.4375H57.2061C57.1833 13.2962 57.1559 13.0934 57.124 12.8291C57.0967 12.5602 57.083 12.3118 57.083 12.084V9.36328H58.6963V20H57.4385L57.1514 18.9678H57.083C56.9463 19.1865 56.7731 19.3848 56.5635 19.5625C56.3584 19.7357 56.1123 19.8747 55.8252 19.9795C55.5426 20.0843 55.2077 20.1367 54.8203 20.1367ZM55.2715 18.8311C55.9596 18.8311 56.445 18.6328 56.7275 18.2363C57.0101 17.8398 57.1559 17.2451 57.165 16.4521V16.2402C57.165 15.3926 57.0283 14.7432 56.7549 14.292C56.4814 13.8363 55.9824 13.6084 55.2578 13.6084C54.679 13.6084 54.237 13.8431 53.9316 14.3125C53.6309 14.7773 53.4805 15.4268 53.4805 16.2607C53.4805 17.0947 53.6309 17.7327 53.9316 18.1748C54.237 18.6123 54.6836 18.8311 55.2715 18.8311ZM69.1143 20L66.2363 11.6533H66.1748C66.1885 11.8402 66.2044 12.0954 66.2227 12.4189C66.2409 12.7425 66.2568 13.0889 66.2705 13.458C66.2842 13.8271 66.291 14.1803 66.291 14.5176V20H64.8008V10.0059H67.1045L69.873 17.9834H69.9141L72.7783 10.0059H75.0752V20H73.5098V14.4355C73.5098 14.1302 73.5143 13.7998 73.5234 13.4443C73.5371 13.0889 73.5508 12.7516 73.5645 12.4326C73.5827 12.1136 73.5964 11.8584 73.6055 11.667H73.5508L70.5635 20H69.1143ZM84.2422 16.1992C84.2422 16.8281 84.1602 17.3864 83.9961 17.874C83.832 18.3617 83.5928 18.7741 83.2783 19.1113C82.9639 19.444 82.5856 19.6992 82.1436 19.877C81.7015 20.0501 81.2025 20.1367 80.6465 20.1367C80.127 20.1367 79.6507 20.0501 79.2178 19.877C78.7848 19.6992 78.4089 19.444 78.0898 19.1113C77.7754 18.7741 77.5316 18.3617 77.3584 17.874C77.1852 17.3864 77.0986 16.8281 77.0986 16.1992C77.0986 15.3652 77.2422 14.6589 77.5293 14.0801C77.821 13.4967 78.2357 13.0524 78.7734 12.7471C79.3112 12.4417 79.9515 12.2891 80.6943 12.2891C81.3916 12.2891 82.0068 12.4417 82.54 12.7471C83.0732 13.0524 83.4902 13.4967 83.791 14.0801C84.0918 14.6634 84.2422 15.3698 84.2422 16.1992ZM78.7529 16.1992C78.7529 16.7507 78.819 17.2223 78.9512 17.6143C79.0879 18.0062 79.2975 18.307 79.5801 18.5166C79.8626 18.7217 80.2272 18.8242 80.6738 18.8242C81.1204 18.8242 81.485 18.7217 81.7676 18.5166C82.0501 18.307 82.2575 18.0062 82.3896 17.6143C82.5218 17.2223 82.5879 16.7507 82.5879 16.1992C82.5879 15.6478 82.5218 15.1807 82.3896 14.7979C82.2575 14.4105 82.0501 14.1165 81.7676 13.916C81.485 13.7109 81.1182 13.6084 80.667 13.6084C80.0016 13.6084 79.5163 13.8317 79.2109 14.2783C78.9056 14.7249 78.7529 15.3652 78.7529 16.1992ZM89.9229 12.2891C90.0505 12.2891 90.1895 12.2959 90.3398 12.3096C90.4902 12.3232 90.6201 12.3415 90.7295 12.3643L90.5791 13.8682C90.4834 13.8408 90.3649 13.8203 90.2236 13.8066C90.0869 13.793 89.9639 13.7861 89.8545 13.7861C89.5674 13.7861 89.2939 13.834 89.0342 13.9297C88.7744 14.0208 88.5443 14.1621 88.3438 14.3535C88.1432 14.5404 87.986 14.7751 87.8721 15.0576C87.7581 15.3402 87.7012 15.6683 87.7012 16.042V20H86.0879V12.4326H87.3457L87.5645 13.7656H87.6396C87.79 13.4967 87.9769 13.2507 88.2002 13.0273C88.4235 12.804 88.6787 12.6263 88.9658 12.4941C89.2575 12.3574 89.5765 12.2891 89.9229 12.2891ZM95.1455 12.2891C95.82 12.2891 96.3988 12.4281 96.8818 12.7061C97.3649 12.984 97.7363 13.3783 97.9961 13.8887C98.2559 14.3991 98.3857 15.0098 98.3857 15.7207V16.582H93.334C93.3522 17.3158 93.5482 17.8809 93.9219 18.2773C94.3001 18.6738 94.8288 18.8721 95.5078 18.8721C95.9909 18.8721 96.4238 18.8265 96.8066 18.7354C97.194 18.6396 97.5928 18.5007 98.0029 18.3184V19.624C97.6247 19.8018 97.2396 19.9316 96.8477 20.0137C96.4557 20.0957 95.9863 20.1367 95.4395 20.1367C94.6966 20.1367 94.0426 19.9932 93.4775 19.7061C92.917 19.4144 92.4772 18.9814 92.1582 18.4072C91.8438 17.833 91.6865 17.1198 91.6865 16.2676C91.6865 15.4199 91.8301 14.6999 92.1172 14.1074C92.4043 13.515 92.8076 13.0638 93.3271 12.7539C93.8467 12.444 94.4528 12.2891 95.1455 12.2891ZM95.1455 13.499C94.6396 13.499 94.2295 13.6631 93.915 13.9912C93.6051 14.3193 93.4229 14.8001 93.3682 15.4336H96.8135C96.8089 15.0553 96.7451 14.7204 96.6221 14.4287C96.5036 14.137 96.3213 13.9092 96.0752 13.7451C95.8337 13.5811 95.5238 13.499 95.1455 13.499Z" fill="black"/>
<path d="M26 20.8545H99.0488V21.1963H26V20.8545Z" fill="black"/>
</svg>
