<svg width="37" height="36" viewBox="0 0 37 36" fill="none" xmlns="http://www.w3.org/2000/svg">
<path fill-rule="evenodd" clip-rule="evenodd" d="M4.22799 0H32.383C34.5026 0 36.2223 1.71969 36.2223 3.83931V31.9943C36.2223 34.1139 34.5026 35.8336 32.383 35.8336H4.22799C2.10836 35.8336 0.388672 34.1139 0.388672 31.9943V3.83931C0.388672 1.71969 2.10836 0 4.22799 0ZM28.4875 13.3815C28.4875 13.1576 28.4875 12.9256 28.4715 12.7016C29.4953 11.9578 30.3912 11.0299 31.103 9.98213C30.1592 10.3901 29.1354 10.686 28.0796 10.798C29.1674 10.1501 29.9912 9.12628 30.3832 7.9105C29.3754 8.51039 28.2396 8.95031 27.0558 9.17427C26.0959 8.15046 24.7362 7.51857 23.2244 7.51857C20.025 7.51857 17.3615 10.4061 18.1054 13.9654C13.7541 13.7415 9.87484 11.6618 7.2913 8.4784C6.83538 9.25426 6.57942 10.1501 6.57942 11.1259C6.57655 12.8812 7.45355 14.521 8.91501 15.4931C8.05916 15.4612 7.24331 15.2212 6.54743 14.8293V14.8933C6.54743 17.4448 8.34711 19.5564 10.7467 20.0443C9.91483 20.2603 9.18696 20.2603 8.3791 20.1403C9.04298 22.2199 10.9786 23.7317 13.2822 23.7797C11.4825 25.1874 9.22695 26.0193 6.77139 26.0193C6.33947 26.0193 5.93154 26.0033 5.50762 25.9553C7.8272 27.443 10.5867 28.3069 13.5622 28.3069C23.2085 28.3069 28.4875 20.3163 28.4875 13.3815Z" fill="white"/>
</svg>
