<svg width="144" height="34" viewBox="0 0 144 34" fill="none" xmlns="http://www.w3.org/2000/svg">
<rect width="144" height="34" rx="7" fill="#FFFB95"/>
<path d="M15.346 23.216C14.422 23.216 13.618 23.048 12.934 22.712C12.25 22.376 11.722 21.908 11.35 21.308C10.978 20.708 10.792 20.012 10.792 19.22H12.376C12.376 19.712 12.49 20.168 12.718 20.588C12.946 20.996 13.276 21.326 13.708 21.578C14.152 21.818 14.698 21.938 15.346 21.938C16.198 21.938 16.858 21.734 17.326 21.326C17.794 20.918 18.028 20.408 18.028 19.796C18.028 19.292 17.92 18.89 17.704 18.59C17.488 18.278 17.194 18.026 16.822 17.834C16.462 17.642 16.042 17.474 15.562 17.33C15.094 17.186 14.602 17.024 14.086 16.844C13.114 16.508 12.394 16.094 11.926 15.602C11.458 15.098 11.224 14.444 11.224 13.64C11.212 12.968 11.368 12.374 11.692 11.858C12.016 11.33 12.472 10.922 13.06 10.634C13.66 10.334 14.368 10.184 15.184 10.184C15.988 10.184 16.684 10.334 17.272 10.634C17.872 10.934 18.334 11.348 18.658 11.876C18.994 12.404 19.168 13.004 19.18 13.676H17.596C17.596 13.328 17.506 12.986 17.326 12.65C17.146 12.302 16.87 12.02 16.498 11.804C16.138 11.588 15.682 11.48 15.13 11.48C14.446 11.468 13.882 11.642 13.438 12.002C13.006 12.362 12.79 12.86 12.79 13.496C12.79 14.036 12.94 14.45 13.24 14.738C13.552 15.026 13.984 15.266 14.536 15.458C15.088 15.638 15.724 15.848 16.444 16.088C17.044 16.304 17.584 16.556 18.064 16.844C18.544 17.132 18.916 17.504 19.18 17.96C19.456 18.416 19.594 18.998 19.594 19.706C19.594 20.306 19.438 20.876 19.126 21.416C18.814 21.944 18.34 22.376 17.704 22.712C17.08 23.048 16.294 23.216 15.346 23.216ZM25.1763 23C24.3603 23 23.7183 22.802 23.2503 22.406C22.7823 22.01 22.5483 21.296 22.5483 20.264V15.35H21.0002V14.072H22.5483L22.7463 11.93H24.0603V14.072H26.6883V15.35H24.0603V20.264C24.0603 20.828 24.1743 21.212 24.4023 21.416C24.6303 21.608 25.0323 21.704 25.6083 21.704H26.5443V23H25.1763ZM31.5792 23.216C30.8352 23.216 30.2172 23.09 29.7252 22.838C29.2332 22.586 28.8672 22.25 28.6272 21.83C28.3872 21.41 28.2672 20.954 28.2672 20.462C28.2672 19.55 28.6152 18.848 29.3112 18.356C30.0072 17.864 30.9552 17.618 32.1552 17.618H34.5672V17.51C34.5672 16.73 34.3632 16.142 33.9552 15.746C33.5472 15.338 33.0012 15.134 32.3172 15.134C31.7292 15.134 31.2192 15.284 30.7872 15.584C30.3672 15.872 30.1032 16.298 29.9952 16.862H28.4472C28.5072 16.214 28.7232 15.668 29.0952 15.224C29.4792 14.78 29.9532 14.444 30.5172 14.216C31.0812 13.976 31.6812 13.856 32.3172 13.856C33.5652 13.856 34.5012 14.192 35.1252 14.864C35.7612 15.524 36.0792 16.406 36.0792 17.51V23H34.7292L34.6392 21.398C34.3872 21.902 34.0152 22.334 33.5232 22.694C33.0432 23.042 32.3952 23.216 31.5792 23.216ZM31.8132 21.938C32.3892 21.938 32.8812 21.788 33.2892 21.488C33.7092 21.188 34.0272 20.798 34.2432 20.318C34.4592 19.838 34.5672 19.334 34.5672 18.806V18.788H32.2812C31.3932 18.788 30.7632 18.944 30.3912 19.256C30.0312 19.556 29.8512 19.934 29.8512 20.39C29.8512 20.858 30.0192 21.236 30.3552 21.524C30.7032 21.8 31.1892 21.938 31.8132 21.938ZM38.3475 23V14.072H39.7155L39.8415 15.782C40.1175 15.194 40.5375 14.726 41.1015 14.378C41.6655 14.03 42.3615 13.856 43.1895 13.856V15.44H42.7755C42.2475 15.44 41.7615 15.536 41.3175 15.728C40.8735 15.908 40.5195 16.22 40.2555 16.664C39.9915 17.108 39.8595 17.72 39.8595 18.5V23H38.3475ZM48.4145 23C47.5985 23 46.9565 22.802 46.4885 22.406C46.0205 22.01 45.7865 21.296 45.7865 20.264V15.35H44.2385V14.072H45.7865L45.9845 11.93H47.2985V14.072H49.9265V15.35H47.2985V20.264C47.2985 20.828 47.4125 21.212 47.6405 21.416C47.8685 21.608 48.2705 21.704 48.8465 21.704H49.7825V23H48.4145ZM59.2931 23.018L55.8371 10.4H57.4571L60.1751 21.218L63.2711 10.4H64.9451L67.9511 21.218L70.7051 10.4H72.3251L68.7971 23H67.0691L64.0631 12.596L60.9851 23L59.2931 23.018ZM76.1046 23.216C75.3606 23.216 74.7426 23.09 74.2506 22.838C73.7586 22.586 73.3926 22.25 73.1526 21.83C72.9126 21.41 72.7926 20.954 72.7926 20.462C72.7926 19.55 73.1406 18.848 73.8366 18.356C74.5326 17.864 75.4806 17.618 76.6806 17.618H79.0926V17.51C79.0926 16.73 78.8886 16.142 78.4806 15.746C78.0726 15.338 77.5266 15.134 76.8426 15.134C76.2546 15.134 75.7446 15.284 75.3126 15.584C74.8926 15.872 74.6286 16.298 74.5206 16.862H72.9726C73.0326 16.214 73.2486 15.668 73.6206 15.224C74.0046 14.78 74.4786 14.444 75.0426 14.216C75.6066 13.976 76.2066 13.856 76.8426 13.856C78.0906 13.856 79.0266 14.192 79.6506 14.864C80.2866 15.524 80.6046 16.406 80.6046 17.51V23H79.2546L79.1646 21.398C78.9126 21.902 78.5406 22.334 78.0486 22.694C77.5686 23.042 76.9206 23.216 76.1046 23.216ZM76.3386 21.938C76.9146 21.938 77.4066 21.788 77.8146 21.488C78.2346 21.188 78.5526 20.798 78.7686 20.318C78.9846 19.838 79.0926 19.334 79.0926 18.806V18.788H76.8066C75.9186 18.788 75.2886 18.944 74.9166 19.256C74.5566 19.556 74.3766 19.934 74.3766 20.39C74.3766 20.858 74.5446 21.236 74.8806 21.524C75.2286 21.8 75.7146 21.938 76.3386 21.938ZM86.1548 23C85.3388 23 84.6968 22.802 84.2288 22.406C83.7608 22.01 83.5268 21.296 83.5268 20.264V15.35H81.9788V14.072H83.5268L83.7248 11.93H85.0388V14.072H87.6668V15.35H85.0388V20.264C85.0388 20.828 85.1528 21.212 85.3808 21.416C85.6088 21.608 86.0108 21.704 86.5868 21.704H87.5228V23H86.1548ZM93.4456 23.216C92.5936 23.216 91.8256 23.024 91.1416 22.64C90.4696 22.244 89.9356 21.698 89.5396 21.002C89.1556 20.294 88.9636 19.472 88.9636 18.536C88.9636 17.6 89.1556 16.784 89.5396 16.088C89.9356 15.38 90.4696 14.834 91.1416 14.45C91.8256 14.054 92.5936 13.856 93.4456 13.856C94.5016 13.856 95.3896 14.132 96.1096 14.684C96.8416 15.236 97.3036 15.974 97.4956 16.898H95.9476C95.8276 16.346 95.5336 15.92 95.0656 15.62C94.5976 15.308 94.0516 15.152 93.4276 15.152C92.9236 15.152 92.4496 15.278 92.0056 15.53C91.5616 15.782 91.2016 16.16 90.9256 16.664C90.6496 17.168 90.5116 17.792 90.5116 18.536C90.5116 19.28 90.6496 19.904 90.9256 20.408C91.2016 20.912 91.5616 21.296 92.0056 21.56C92.4496 21.812 92.9236 21.938 93.4276 21.938C94.0516 21.938 94.5976 21.788 95.0656 21.488C95.5336 21.176 95.8276 20.738 95.9476 20.174H97.4956C97.3156 21.074 96.8596 21.806 96.1276 22.37C95.3956 22.934 94.5016 23.216 93.4456 23.216ZM99.6072 23V10.04H101.119V15.602C101.419 15.05 101.845 14.624 102.397 14.324C102.949 14.012 103.549 13.856 104.197 13.856C105.229 13.856 106.057 14.18 106.681 14.828C107.305 15.464 107.617 16.448 107.617 17.78V23H106.123V17.942C106.123 16.082 105.373 15.152 103.873 15.152C103.093 15.152 102.439 15.434 101.911 15.998C101.383 16.55 101.119 17.342 101.119 18.374V23H99.6072ZM110.826 12.092C110.526 12.092 110.274 11.996 110.07 11.804C109.878 11.6 109.782 11.348 109.782 11.048C109.782 10.76 109.878 10.52 110.07 10.328C110.274 10.136 110.526 10.04 110.826 10.04C111.114 10.04 111.36 10.136 111.564 10.328C111.768 10.52 111.87 10.76 111.87 11.048C111.87 11.348 111.768 11.6 111.564 11.804C111.36 11.996 111.114 12.092 110.826 12.092ZM110.07 23V14.072H111.582V23H110.07ZM114.215 23V14.072H115.583L115.673 15.674C115.961 15.11 116.375 14.666 116.915 14.342C117.455 14.018 118.067 13.856 118.751 13.856C119.807 13.856 120.647 14.18 121.271 14.828C121.907 15.464 122.225 16.448 122.225 17.78V23H120.713V17.942C120.713 16.082 119.945 15.152 118.409 15.152C117.641 15.152 116.999 15.434 116.483 15.998C115.979 16.55 115.727 17.342 115.727 18.374V23H114.215ZM128.043 20.192C127.539 20.192 127.077 20.126 126.657 19.994L125.757 20.84C125.889 20.936 126.051 21.02 126.243 21.092C126.447 21.152 126.735 21.212 127.107 21.272C127.479 21.32 128.001 21.374 128.673 21.434C129.873 21.518 130.731 21.794 131.247 22.262C131.763 22.73 132.021 23.342 132.021 24.098C132.021 24.614 131.877 25.106 131.589 25.574C131.313 26.042 130.881 26.426 130.293 26.726C129.717 27.026 128.973 27.176 128.061 27.176C127.257 27.176 126.543 27.068 125.919 26.852C125.295 26.648 124.809 26.33 124.461 25.898C124.113 25.478 123.939 24.944 123.939 24.296C123.939 23.96 124.029 23.594 124.209 23.198C124.389 22.814 124.725 22.448 125.217 22.1C124.953 21.992 124.725 21.878 124.533 21.758C124.353 21.626 124.185 21.482 124.029 21.326V20.912L125.559 19.4C124.851 18.8 124.497 18.008 124.497 17.024C124.497 16.436 124.635 15.902 124.911 15.422C125.187 14.942 125.589 14.564 126.117 14.288C126.645 14 127.287 13.856 128.043 13.856C128.559 13.856 129.027 13.928 129.447 14.072H132.741V15.206L131.067 15.278C131.415 15.782 131.589 16.364 131.589 17.024C131.589 17.612 131.445 18.146 131.157 18.626C130.881 19.106 130.479 19.49 129.951 19.778C129.435 20.054 128.799 20.192 128.043 20.192ZM128.043 18.95C128.679 18.95 129.183 18.788 129.555 18.464C129.939 18.128 130.131 17.648 130.131 17.024C130.131 16.412 129.939 15.944 129.555 15.62C129.183 15.284 128.679 15.116 128.043 15.116C127.395 15.116 126.879 15.284 126.495 15.62C126.123 15.944 125.937 16.412 125.937 17.024C125.937 17.648 126.123 18.128 126.495 18.464C126.879 18.788 127.395 18.95 128.043 18.95ZM125.415 24.152C125.415 24.752 125.667 25.196 126.171 25.484C126.675 25.784 127.305 25.934 128.061 25.934C128.805 25.934 129.399 25.772 129.843 25.448C130.299 25.124 130.527 24.692 130.527 24.152C130.527 23.768 130.371 23.432 130.059 23.144C129.747 22.868 129.171 22.706 128.331 22.658C127.671 22.61 127.101 22.55 126.621 22.478C126.129 22.742 125.805 23.024 125.649 23.324C125.493 23.636 125.415 23.912 125.415 24.152Z" fill="black"/>
<path d="M10 25.25H133.209V26.15H10V25.25Z" fill="black"/>
</svg>
