<svg width="36" height="36" viewBox="0 0 36 36" fill="none" xmlns="http://www.w3.org/2000/svg">
<path fill-rule="evenodd" clip-rule="evenodd" d="M35.8336 3.83931V31.9943C35.8336 34.1139 34.1139 35.8336 31.9943 35.8336H3.83931C1.71969 35.8336 0 34.1139 0 31.9943V3.83931C0 1.71969 1.71969 0 3.83931 0H31.9943C34.1139 0 35.8336 1.71969 35.8336 3.83931ZM14.9415 13.6056L22.5561 17.9328L14.9415 22.26V13.6056ZM31.8665 10.8861C32.4744 13.1737 32.4744 17.9409 32.4744 17.9409C32.4744 17.9409 32.4744 22.708 31.8665 24.9876C31.5305 26.2514 30.5467 27.2032 29.2909 27.5391C27.0273 28.155 17.917 28.155 17.917 28.155C17.917 28.155 8.80658 28.155 6.54299 27.5471C5.28721 27.2112 4.30339 26.2594 3.96745 24.9956C3.35956 22.708 3.35956 17.9409 3.35956 17.9409C3.35956 17.9409 3.35956 13.1657 3.96745 10.8861C4.30339 9.62235 5.28721 8.63053 6.54299 8.29459C8.80658 7.6787 17.917 7.6787 17.917 7.6787C17.917 7.6787 27.0273 7.6787 29.2909 8.29459C30.5467 8.63053 31.5305 9.62235 31.8665 10.8861Z" fill="white"/>
</svg>
